<?xml version="1.0" encoding="UTF-8" standalone="no"?>
<svg
   xmlns:dc="http://purl.org/dc/elements/1.1/"
   xmlns:cc="http://creativecommons.org/ns#"
   xmlns:rdf="http://www.w3.org/1999/02/22-rdf-syntax-ns#"
   xmlns:svg="http://www.w3.org/2000/svg"
   xmlns="http://www.w3.org/2000/svg"
   xmlns:sodipodi="http://sodipodi.sourceforge.net/DTD/sodipodi-0.dtd"
   xmlns:inkscape="http://www.inkscape.org/namespaces/inkscape"
   width="8.8000002cm"
   height="4.1999998cm"
   viewBox="0 0 88.000002 41.999999"
   version="1.1"
   id="svg8"
   inkscape:version="1.0 (4035a4fb49, 2020-05-01)"
   sodipodi:docname="CHconquer.svg">
  <defs
     id="defs2" />
  <sodipodi:namedview
     inkscape:object-paths="false"
     inkscape:snap-nodes="true"
     inkscape:snap-global="true"
     id="base"
     pagecolor="#0f0f0f"
     bordercolor="#c8c8c8"
     borderopacity="1"
     inkscape:pageopacity="0"
     inkscape:pageshadow="2"
     inkscape:zoom="2.8"
     inkscape:cx="199.74014"
     inkscape:cy="128.65866"
     inkscape:document-units="mm"
     inkscape:current-layer="layer2"
     inkscape:document-rotation="0"
     showgrid="false"
     units="cm"
     showborder="true"
     borderlayer="true"
     inkscape:showpageshadow="false"
     inkscape:window-width="1920"
     inkscape:window-height="1009"
     inkscape:window-x="-8"
     inkscape:window-y="-8"
     inkscape:window-maximized="1" />
  <metadata
     id="metadata5">
    <rdf:RDF>
      <cc:Work
         rdf:about="">
        <dc:format>image/svg+xml</dc:format>
        <dc:type
           rdf:resource="http://purl.org/dc/dcmitype/StillImage" />
        <dc:title></dc:title>
      </cc:Work>
    </rdf:RDF>
  </metadata>
  <g
     style="display:inline"
     inkscape:label="drawing"
     inkscape:groupmode="layer"
     id="layer1"
     transform="translate(0,-255)">
    <path
       sodipodi:nodetypes="sssss"
       id="path831"
       d="m 65.36191,264.87684 c 13.312705,-0.44226 19.534157,6.78118 21.126,13.1616 1.591842,6.3804 -2.83161,15.43847 -9.393046,16.93334 -6.970204,1.588 -16.560542,0.4175 -26.351968,-10.43334 -8.878291,-9.83891 -0.803408,-19.14928 14.619014,-19.6616 z"
       style="font-variation-settings:normal;opacity:1;vector-effect:none;fill:#b0e4fa;fill-opacity:0.85;stroke:#d2d2d2;stroke-width:0.28;stroke-linecap:butt;stroke-linejoin:miter;stroke-miterlimit:4;stroke-dasharray:none;stroke-dashoffset:0;stroke-opacity:1;stop-color:#000000;stop-opacity:1" />
    <path
       style="font-variation-settings:normal;opacity:1;vector-effect:none;fill:#b0e4fa;fill-opacity:0.85;stroke:#d2d2d2;stroke-width:0.28;stroke-linecap:butt;stroke-linejoin:miter;stroke-miterlimit:4;stroke-dasharray:none;stroke-dashoffset:0;stroke-opacity:1;stop-color:#000000;stop-opacity:1"
       d="m 14.464137,256.46969 c 9.659048,-0.32063 14.173029,4.9163 15.327993,9.54206 1.154963,4.62573 -2.054477,11.19275 -6.815135,12.27652 -5.057239,1.15129 -12.015521,0.30269 -19.1197016,-7.56408 -6.4416546,-7.13313 -0.5829137,-13.88305 10.6068436,-14.2545 z"
       id="path833"
       sodipodi:nodetypes="sssss" />
  </g>
  <g
     transform="translate(0,-23)"
     style="display:inline"
     inkscape:label="envelope"
     id="layer2"
     inkscape:groupmode="layer">
    <path
       sodipodi:nodetypes="ssssssccssssccs"
       id="path838"
       d="m 16.760955,44.076126 c -1.017547,-0.600814 -2.182256,-1.568583 -0.08923,-2.223906 1.89841,-0.594389 1.471273,-2.470201 -0.149934,-2.93519 -1.937248,-0.555631 -1.390097,-2.897226 0.307593,-3.539089 1.84169,-0.696304 2.972578,-2.824156 0.547615,-4.689282 -2.432143,-1.870642 1.019237,-2.888717 2.325603,-2.797718 2.666651,0.185728 5.758423,-1.0121 -0.09697,-3.00696 l 50.061992,8.130487 c -7.727657,0.996198 -9.819822,2.241753 -9.073856,3.59832 0.843307,1.53359 -0.131111,3.116174 -2.43049,3.263202 -3.438475,0.219869 -5.61905,1.006481 -5.037961,3.512698 0.579987,2.501463 5.331591,4.282706 2.011886,6.691235 -4.029648,2.923606 0.849461,7.709483 7.193999,11.316761 L 14.067913,45.849862 c 2.586834,0.209839 4.673862,-0.604153 2.693042,-1.773736 z"
       style="font-variation-settings:normal;opacity:1;vector-effect:none;fill:#e04667;fill-opacity:0.803571;stroke:#7b7b7b;stroke-width:0.28;stroke-linecap:butt;stroke-linejoin:miter;stroke-miterlimit:4;stroke-dasharray:none;stroke-dashoffset:0;stroke-opacity:1;stop-color:#000000;stop-opacity:1" />
  </g>
</svg>
