<?xml version="1.0" encoding="UTF-8" standalone="no"?>
<!-- Created with Inkscape (http://www.inkscape.org/) -->

<svg
   version="1.1"
   id="svg9"
   width="254"
   height="254"
   viewBox="0 0 254 254"
   sodipodi:docname="pictGallery.svg"
   inkscape:version="1.2.2 (732a01da63, 2022-12-09)"
   xmlns:inkscape="http://www.inkscape.org/namespaces/inkscape"
   xmlns:sodipodi="http://sodipodi.sourceforge.net/DTD/sodipodi-0.dtd"
   xmlns="http://www.w3.org/2000/svg"
   xmlns:svg="http://www.w3.org/2000/svg">
  <defs
     id="defs13" />
  <sodipodi:namedview
     id="namedview11"
     pagecolor="#0f0f0f"
     bordercolor="#000000"
     borderopacity="0.25"
     inkscape:showpageshadow="2"
     inkscape:pageopacity="0"
     inkscape:pagecheckerboard="0"
     inkscape:deskcolor="#d1d1d1"
     showgrid="false"
     inkscape:zoom="2"
     inkscape:cx="92.25"
     inkscape:cy="124.25"
     inkscape:window-width="1920"
     inkscape:window-height="1111"
     inkscape:window-x="-9"
     inkscape:window-y="-9"
     inkscape:window-maximized="1"
     inkscape:current-layer="layer2">
    <inkscape:page
       x="0"
       y="0"
       id="page15"
       width="254"
       height="254" />
  </sodipodi:namedview>
  <g
     id="g17"
     inkscape:groupmode="layer"
     inkscape:label="Page 1"
     transform="matrix(1.3333333,0,0,-1.3333333,0,1122.52)" />
  <g
     inkscape:groupmode="layer"
     id="layer1"
     inkscape:label="main outline">
    <path
       d="m 34.675246,246.33531 v -30.2372 H 4.4381259 v -75.5928 H 49.793792 V 125.38672 H 4.4381259 V 4.4380905 H 49.793792 V 64.912401 H 95.149511 V 49.793831 H 64.912365 V 4.4380905 H 246.33528 V 49.793831 H 140.50522 v 15.11857 H 246.33528 V 155.62391 H 140.50522 v 30.2371 h 105.83006 v 60.4743 H 95.149511 v -75.5929 H 80.030938 v 75.5929 z"
       style="fill:none;stroke:#fffffe;stroke-width:0.64;stroke-linecap:butt;stroke-linejoin:miter;stroke-miterlimit:10;stroke-dasharray:none;stroke-opacity:1"
       id="path99" />
  </g>
  <g
     inkscape:groupmode="layer"
     id="layer3"
     inkscape:label="green_guy"
     style="display:inline" />
  <g
     inkscape:groupmode="layer"
     id="layer4"
     inkscape:label="purple_guy"
     style="display:inline">
    <path
       style="fill:#c68ef5;fill-opacity:0.16;stroke:#c68ef5;stroke-width:0.68;stroke-dasharray:none;stroke-dashoffset:2.04;stroke-opacity:1"
       d="M 49.79379,140.50531 V 125.38672 H 4.4381299 V 4.4380905 H 49.79379 V 64.912401 H 95.149511 L 131.43409,4.4380905 h 54.42686 L 140.50522,49.793831 v 15.11857 H 246.33528 V 155.62391 H 140.50522 v 30.2371 l 105.83005,52.915 1e-5,7.5593 H 208.06736 L 95.149511,170.74241 H 80.03094 v 75.5929 H 34.67525 v -30.2372 H 4.4381299 v -75.5928 z"
       id="path25259"
       sodipodi:nodetypes="ccccccccccccccccccc" />
    <path
       style="fill:none;fill-opacity:0.14841;stroke:#c68ef5;stroke-width:0.68;stroke-dasharray:4.08;stroke-dashoffset:2.04;stroke-opacity:1"
       d="M 49.79379,140.50531 95.149511,64.912401"
       id="path23002" />
    <path
       style="fill:none;fill-opacity:0.14841;stroke:#c68ef5;stroke-width:0.68;stroke-dasharray:4.08;stroke-dashoffset:2.04;stroke-opacity:1"
       d="M 140.50522,49.793831 49.79379,140.50531"
       id="path23004" />
    <path
       style="fill:none;fill-opacity:0.14841;stroke:#c68ef5;stroke-width:0.68;stroke-dasharray:4.08;stroke-dashoffset:2.04;stroke-opacity:1"
       d="M 140.50522,185.86101 49.79379,140.50531"
       id="path23006" />
    <path
       style="fill:none;fill-opacity:0.14841;stroke:#c68ef5;stroke-width:0.68;stroke-dasharray:4.08;stroke-dashoffset:2.04;stroke-opacity:1"
       d="M 95.149511,170.74241 49.79379,140.50531"
       id="path23008" />
  </g>
  <g
     inkscape:groupmode="layer"
     id="layer5"
     inkscape:label="orange_guy"
     style="display:inline">
    <path
       style="fill:#fa9c5e;fill-opacity:0.166078;stroke:#fa9c5e;stroke-width:0.68;stroke-dasharray:none;stroke-dashoffset:2.04;stroke-opacity:1"
       d="M 246.33528,49.793831 H 64.91236 V 4.4380905 h 181.42292 z"
       id="path25466"
       sodipodi:nodetypes="ccccc" />
  </g>
  <g
     inkscape:groupmode="layer"
     id="layer6"
     inkscape:label="yellow_guy"
     style="display:inline">
    <path
       style="fill:none;fill-opacity:1;stroke:#f7fd56;stroke-width:0.68;stroke-dasharray:4.08;stroke-dashoffset:0;stroke-opacity:1"
       d="M 246.65528,246.65531 140.50522,185.86101"
       id="path27757" />
    <path
       style="fill:#f7fd56;fill-opacity:0.102473;stroke:#f7fd56;stroke-width:0.68;stroke-dasharray:none;stroke-dashoffset:2.04;stroke-opacity:1"
       d="m 140.50522,185.86101 -90.71143,-52.3488 v 6.9931 l -14.89261,0.2503 60.210451,30.0405 0.0379,75.5392 151.505769,0.32 -0.32,-60.7943 z"
       id="path28534"
       sodipodi:nodetypes="ccccc" />
    <path
       style="fill:none;fill-opacity:1;stroke:#f7fd56;stroke-width:0.68;stroke-dasharray:4.08;stroke-dashoffset:0;stroke-opacity:1"
       d="M 246.65528,246.65531 95.149511,170.74241"
       id="path30051" />
  </g>
  <g
     inkscape:groupmode="layer"
     id="layer2"
     inkscape:label="guards"
     style="display:inline">
    <path
       id="path3559"
       style="fill:#fa9c5e;fill-opacity:1;stroke-width:1.98235"
       d="m 249.90187,49.793821 a 3.566597,3.566597 0 0 1 -3.5666,3.56659 3.566597,3.566597 0 0 1 -3.5666,-3.56659 3.566597,3.566597 0 0 1 3.5666,-3.5666 3.566597,3.566597 0 0 1 3.5666,3.5666 z" />
    <path
       id="path4289"
       style="fill:#f7fd56;fill-opacity:1;stroke-width:1.98235"
       d="m 249.90188,246.33531 a 3.566597,3.566597 0 0 1 -3.5666,3.5666 3.566597,3.566597 0 0 1 -3.5666,-3.5666 3.566597,3.566597 0 0 1 3.5666,-3.5666 3.566597,3.566597 0 0 1 3.5666,3.5666 z" />
    <path
       id="path4291"
       style="fill:#87f679;fill-opacity:1;stroke-width:1.98235"
       d="m 98.678231,170.79611 a 3.566597,3.566597 0 0 1 -3.5666,3.5666 3.566597,3.566597 0 0 1 -3.5666,-3.5666 3.566597,3.566597 0 0 1 3.5666,-3.5666 3.566597,3.566597 0 0 1 3.5666,3.5666 z" />
    <path
       id="path4293"
       style="fill:#c68ef5;fill-opacity:1;stroke-width:1.98235"
       d="m 53.36039,140.50531 a 3.566597,3.566597 0 0 1 -3.5666,3.5666 3.566597,3.566597 0 0 1 -3.5666,-3.5666 3.566597,3.566597 0 0 1 3.5666,-3.5666 3.566597,3.566597 0 0 1 3.5666,3.5666 z" />
    <path
       style="fill:none;fill-opacity:1;stroke:#87f679;stroke-width:0.68;stroke-dasharray:4.08;stroke-dashoffset:0;stroke-opacity:1"
       d="m 140.50522,155.62391 -45.393589,15.1722"
       id="path30221" />
    <path
       style="fill:none;fill-opacity:1;stroke:#87f679;stroke-width:0.68;stroke-dasharray:4.08;stroke-dashoffset:0;stroke-opacity:1"
       d="M 140.50522,49.793831 95.111631,170.79611"
       id="path30286" />
    <path
       style="fill:none;fill-opacity:1;stroke:#87f679;stroke-width:0.68;stroke-dasharray:4.08;stroke-dashoffset:0;stroke-opacity:1"
       d="M 95.149511,49.793831 V 170.74241"
       id="path30288" />
    <path
       style="fill:none;fill-opacity:1;stroke:#87f679;stroke-width:0.68;stroke-dasharray:4.08;stroke-dashoffset:0;stroke-opacity:1"
       d="M 49.79379,64.912401 95.149511,170.74241"
       id="path31016" />
    <path
       style="fill:none;fill-opacity:1;stroke:#87f679;stroke-width:0.68;stroke-dasharray:4.08;stroke-dashoffset:0;stroke-opacity:1"
       d="m 49.79379,125.38672 45.317841,45.40939"
       id="path31744" />
    <path
       style="fill:none;fill-opacity:1;stroke:#87f679;stroke-width:0.68;stroke-dasharray:4.08;stroke-dashoffset:0;stroke-opacity:1"
       d="m 95.111631,170.79611 45.393589,15.0649"
       id="path33258" />
    <path
       style="fill:#87f679;fill-opacity:0.166078;stroke:#87f679;stroke-width:0.679999;stroke-dasharray:none;stroke-dashoffset:0;stroke-opacity:1"
       d="m 140.50522,185.75941 v -30.1355 L 246.33528,119.73445 V 64.912401 H 140.50522 V 49.793831 L 157.38197,4.4380905 H 95.149511 V 49.793831 64.912401 H 49.79379 L 24.0489,4.4381005 4.4381299,4.4380905 4.4381199,79.939411 49.79379,125.38671 v 15.1186 H 4.4381299 v 30.2371 l 90.6924411,0.027 0.019,75.566 H 246.33534 l 0.10562,-25.0986 z"
       id="path33260"
       sodipodi:nodetypes="ccccccccccccccccccccccc" />
  </g>
</svg>
